# xmcd
#
# Track frame offsets: 
#        150
#        19473
#        40591
#        54429
#        77500
#        108292
#        125418
#        149050
#        169939
#        190637
#        208136
#        231754
#        250450
#        283088
#        321718
#
# Disc length: 4562 seconds
#
# Revision: 2
# Processed by: cddbd v1.5.2PL0 Copyright (c) Steve Scherf et al.
# Submitted via: ExactAudioCopy v0.99pb5
#
DISCID=e011d00f
DTITLE=Snowy White - Pure Gold The Solo Years 1983-98
DYEAR=1999
DGENRE=Blues-Rock
TTITLE0=Good Question 
TTITLE1=Bird Of Paradise 
TTITLE2=Open Carefully
TTITLE3=At The Crossroads
TTITLE4=Snow Blues
TTITLE5=Rush Hour
TTITLE6=Someone Else Is Gonna Love Me
TTITLE7=Only Woman
TTITLE8=Birthday Blues
TTITLE9=Highway To The Sun
TTITLE10=Love, Pain and Sorrow
TTITLE11=All My Money
TTITLE12=In The Name Of The Lord
TTITLE13=Midnight Blues
TTITLE14=The More You Live
EXTD=
EXTT0=
EXTT1=
EXTT2=
EXTT3=
EXTT4=
EXTT5=
EXTT6=Previously Unreleased\n
EXTT7=Previously Unreleased\n
EXTT8=Previously Unreleased
EXTT9=
EXTT10=
EXTT11=
EXTT12=
EXTT13=
EXTT14=
PLAYORDER=
